<?xml version="1.0" encoding="UTF-8"?>
<svg xmlns="http://www.w3.org/2000/svg" width="402" height="414" viewBox="-32 -6 402 414">
  <path d="M819.999,205.5L819.999,208.5C816.581,210.157 798.343,220.428 765.624,233.809C733.756,246.842 710.422,263.505 686.284,274.016C663.343,284.005 650.535,295.125 604.553,313.626C594.676,317.6 593.488,319.861 574.527,325.6C568.254,327.499 495.646,352.893 494.449,353.399C475.381,361.455 464.721,372.935 445.852,387.937C427.579,402.465 427.1,402.288 411.924,425.771C407.328,432.882 406.182,432.194 394.161,457.329C377.565,492.03 378.789,498.027 375.338,512.454C373.321,520.889 367.346,554.805 365.217,561.392C364.511,563.576 365.25,563.698 359.901,589.59C358.921,594.332 357.026,612.53 356.817,614.53C356.487,617.703 351.628,641.519 351.737,686.497C351.751,692.26 350.675,692.211 351.92,725.496C352.387,738.005 360.788,744.139 354.633,773.53C353.374,779.546 343.623,822.131 341.656,828.554C337.161,843.237 330.368,852.234 314.142,885.341C304.655,904.7 303.6,904.034 294.153,923.338C286.733,938.499 272.631,951.288 270.362,953.346C264.871,958.326 260.447,958.859 253.223,967.246C249.305,971.794 244.815,969.415 247.692,964.6C253.867,954.266 268.812,950.059 278.695,935.635C285.271,926.037 285.903,926.493 294.906,908.691C296.101,906.328 296.221,906.461 310.317,879.401C329.164,843.221 335.903,834.169 341.284,802.463C343.446,789.719 352.558,764.998 348.325,747.54C346.604,740.44 346.989,740.431 344.533,733.49C342.36,727.346 346.347,650.388 348.204,639.446C349.722,630.5 350.068,603.627 369.24,519.434C378.483,478.843 378.893,478.826 399.264,437.386C402.904,429.981 419.993,401.892 432.914,390.957C441.7,383.52 451.089,377.926 455.6,372.587C464.869,361.619 480.339,353.228 482.737,351.927C489.481,348.269 504.766,341.801 506.707,340.979C510.929,339.193 519.414,338.856 547.479,327.45C554.084,324.766 572.798,320.578 606.356,306.145C632.886,294.734 632.553,294.22 658.469,281.44C675.404,273.09 675.538,273.586 692.42,265.314C709.711,256.841 731.088,242.445 757.503,231.506C798.688,214.45 797.94,213.009 801.52,211.55C809.92,208.127 809.797,207.907 819.999,205.5Z" style="fill:rgb(55,55,55);" transform="matrix(0.3444 0.0376 -0.0375 0.3441 91.4054 -5.8515)"/>
  <path d="M104.408,849.574C104.545,849.897 106.663,854.874 102.489,853.526C99.6,852.593 85.534,830.381 81.095,811.604C79.896,806.531 78.784,806.771 79.077,801.47C83.885,714.44 84.154,714.439 95.15,663.429C106.766,609.54 121.048,583.071 144.749,537.633C154.13,519.649 179.891,478.966 190.26,455.405C197.245,439.534 200.351,439.635 214.209,407.38C215.095,405.318 226.666,383.307 231.975,369.684C232.71,367.797 256.912,318.409 273.991,278.703C275.657,274.828 275.981,275.029 297.336,231.425C311.076,203.37 316.784,197.143 335.4,170.418C340.439,163.184 365.539,139.51 381.435,128.411C392.962,120.363 408.763,107.609 437.39,97.18C439.762,96.316 442.786,93.913 457.593,89.816C467.442,87.09 497.059,82.13 500.507,81.552C509.267,80.085 553.823,80.243 578.4,83.988C599.325,87.176 616.763,85.81 646.583,93.205C676.676,100.668 703.754,104.327 726.783,117.041C731.29,119.529 740.176,122.106 754.507,136.492C754.936,136.922 759.349,140.362 763.181,144.777C765.596,147.558 765.03,150.302 769.655,154.321C776.534,160.297 768.298,158.942 767.554,158.431C753.177,148.562 757.547,141.001 725.806,123.022C696.179,106.24 665.566,103.259 621.59,93.126C618.034,92.306 546.428,85.772 543.501,85.826C526.94,86.128 527.007,85.885 510.506,85.855C500.004,85.836 441.003,93.064 400.22,121.075C385.055,131.491 364.766,145.159 341.88,170.833C338.023,175.16 318.038,203.153 309.699,218.6C299.676,237.169 265.957,307.99 254.642,333.562C247.772,349.089 247.051,348.681 230.672,384.578C229.097,388.03 229.017,387.964 210.014,427.272C203.259,441.244 198.292,445.19 190.063,465.31C187.215,472.274 160.993,516.241 152.199,533.351C146.38,544.673 146.081,544.444 139.903,556.706C133.836,568.751 121.166,590.332 106.186,637.41C105.243,640.374 103.83,649.44 98.122,671.397C86.564,715.856 82.966,801.627 84.999,808.348C89.743,824.034 91.917,834.203 104.408,849.574Z" style="fill:rgb(57,57,57);" transform="matrix(0.3444 0.0376 -0.0375 0.3441 91.4054 -5.8515)"/>
  <path d="M354.442,976.453C359.01,971.394 358.954,971.431 364.175,967.115C387.541,947.796 393.893,935.999 406.688,912.608C418.553,890.918 417.858,890.588 418.927,888.727C419.89,887.05 426.164,876.122 430.707,867.622C443.865,842.999 442.928,842.601 446.057,836.276C450.526,827.244 463.177,767.662 462.518,758.499C460.109,725.015 440.981,712.861 427.935,683.321C405.426,632.355 410.367,620.37 412.224,605.467C416.338,572.458 436.252,548.857 439.251,542.385C442.004,536.444 442.66,536.9 446.023,531.24C460.003,507.714 505.994,463.685 515.767,456.881C546.533,435.461 544.66,431.481 580.218,412.011C605.891,397.954 617.099,394.679 630.763,386.95C633.785,385.241 667.26,366.308 668.59,365.695C683.489,358.828 711.1,337.181 724.676,329.827C726.485,328.847 788.584,286.851 803.643,280.981C805.909,280.098 807.773,282.734 803.368,285.294C793.949,290.768 794.568,291.571 785.231,297.025C783.117,298.26 769.704,306.095 759.166,313.055C712.921,343.598 712.518,342.837 708.641,345.688C676.856,369.057 651.672,380.436 649.143,382C624.117,397.471 599.459,407.028 597.713,407.928C579.032,417.559 578.954,417.358 577.372,418.268C555.989,430.557 533.672,449.854 527.786,453.934C503.341,470.876 487.008,490.345 470.72,507.698C450.904,528.808 424.876,575.786 421.906,589.58C415.725,618.284 417.771,631.891 418.319,635.537C421.155,654.4 437.368,688.024 437.63,688.419C450.76,708.257 451.646,707.62 452.538,709.481C461.256,727.684 460.898,727.829 461.769,729.351C462.767,731.094 467.262,738.948 468.751,753.47C470.462,770.151 462.103,789.783 460.939,801.535C459.401,817.066 447.261,851.121 440.201,862.301C424.257,887.546 399.636,949.23 372.616,967.677C361.901,974.992 356.965,984.684 353.61,983.278C350.163,981.833 354.1,976.883 354.442,976.453Z" style="fill:rgb(58,58,58);" transform="matrix(0.3444 0.0376 -0.0375 0.3441 91.4054 -5.8515)"/>
  <path d="M819.999,431.5L819.999,433.5C818.943,435.517 818.195,435.452 818.961,437.551C819.122,437.992 819.838,438.06 819.999,438.5L819.999,439.5C817.007,445.286 816.689,457.464 811.251,467.37C793.305,500.06 786.475,519.797 720.601,549.759C713.548,552.967 713.992,553.778 699.652,559.845C694.113,562.188 671.104,571.923 633.251,595.109C633.214,595.132 626.024,597.932 603.832,615.888C598.171,620.469 582.599,638.085 580.863,639.853C579.524,641.216 537.089,700.422 533.862,739.537C531.596,767.004 530.862,766.993 533.344,794.513C535.061,813.554 535.922,813.397 537.776,832.469C537.955,834.309 537.203,834.285 539.08,855.549C545.125,924.059 493.393,967.508 480.024,986.168C478.685,988.036 450.205,1022.593 450.203,1012.511C450.203,1009.369 452.684,1010.797 475.907,982.825C492.614,962.701 510.437,945.578 525.768,908.618C538.288,878.439 529.297,822.213 528.022,799.504C526.268,768.289 520.235,735.295 543.629,691.569C549.015,681.502 548.582,681.396 554.326,671.417C576.463,632.965 595.815,613.131 632.806,589.946C637.787,586.824 638.254,587.766 652.735,578.869C689.503,556.279 721.824,547.972 755.575,525.61C789.248,503.3 792.156,489.03 803.748,467.633C812.396,451.671 813.023,426.19 813.114,422.504C814.02,385.669 816.378,381.847 817.095,384.795C819.102,393.041 814.018,402.71 818.186,414.603C819.275,417.711 818.866,430.096 818.98,430.413C819.147,430.881 819.831,431.033 819.999,431.5Z" style="fill:rgb(61,61,61);" transform="matrix(0.3444 0.0376 -0.0375 0.3441 91.4054 -5.8515)"/>
  <path d="M611.184,975.512C610.949,973.546 610.972,973.555 610.93,973.389C610.286,970.824 599.634,945.982 598.059,942.68C593.635,933.4 594.274,933.254 587.968,913.355C583.91,900.549 582.363,881.965 578.319,872.582C573.14,860.562 566.439,822.63 566.18,818.535C565.857,813.434 565.318,813.585 564.78,808.465C561.782,779.906 562.078,771.676 562.193,768.472C563.203,740.38 568.413,732.21 569.069,730.363C578.104,704.922 600.787,678.469 623.211,662.075C665.767,630.963 688.821,623.12 690.328,622.202C700.965,615.721 701.572,616.959 786.32,575.158C795.736,570.514 799.929,562.245 800.124,566.532C800.681,578.813 763.692,590.825 753.523,597.531C749.119,600.436 746.979,600.088 742.595,602.67C731.268,609.34 711.442,617.707 703.633,621.774C677.791,635.234 677.38,634.316 652.542,649.565C644.213,654.678 644.625,655.105 636.536,660.546C626.017,667.622 625.766,667.22 624.938,667.944C601.993,687.984 597.949,693.572 596.054,696.19C582.208,715.322 571.379,731.127 570.658,761.505C570.307,776.258 570.071,776.246 570.174,777.524C572.508,806.675 572.198,806.653 577.859,835.441C587.242,883.15 590.506,882.323 594.891,908.434C595.142,909.929 603.361,935.974 605.936,940.213C611.997,950.192 612.219,956.255 620.036,968.798C624.803,976.449 620.125,999.739 619.51,1003.502C619.092,1006.059 615.507,1007.951 613.458,1008.189C607.776,1008.849 609.258,1005.712 611.152,1000.374C614.99,989.562 611.506,978.228 611.184,975.512Z" style="fill:rgb(56,56,56);" transform="matrix(0.3444 0.0376 -0.0375 0.3441 91.4054 -5.8515)"/>
  <path d="M518.488,42.903C507.359,43.35 500.109,42.492 498.522,42.304C486.506,40.882 486.541,41.549 477.486,40.686C439.73,37.086 437.296,44.196 399.656,60.83C389.542,65.3 390.238,68.606 353.372,80.083C350.339,81.027 350.436,81.118 347.398,82.157C329.212,88.376 316.304,86.855 306.51,89.547C272.849,98.797 243.84,91.762 223.558,100.638C203.102,109.59 175.205,143.818 157.36,154.266C133.615,168.169 132.722,166.197 122.612,169.826C74.833,186.976 76.508,193.216 72.411,191.669C65.615,189.101 78.225,184.715 82.376,182.29C107.818,167.425 138.643,164.417 159.524,146.527C165.155,141.702 166.114,142.918 187.345,123.337C194.672,116.58 194.827,116.902 202.292,110.241C232.879,82.951 254.821,93.94 283.521,89.658C300.243,87.164 300.261,87.549 302.601,86.86C313.356,83.692 313.352,83.847 324.512,82.59C364.803,78.05 402.56,54.737 403.397,54.294C413.036,49.202 413.324,50.057 421.283,46.045C458.629,27.219 476.838,38.778 521.498,38.585C531.651,38.541 531.642,38.809 532.519,38.714C550.367,36.767 599.74,41.032 615.48,38.402C632.417,35.571 644.819,36.726 656.476,36.06C673.006,35.115 672.925,34.415 689.483,34.69C691.326,34.72 709.063,35.014 712.507,35.317C731.002,36.94 731.032,33.894 749.498,35.555C776.804,38.011 776.037,41.54 781.482,42.639C784.969,43.343 789.966,49.767 789.3,53.444C788.348,58.698 786.499,51.479 782.24,48.933C775.222,44.739 767.47,43.743 765.676,43.091C745.15,35.639 727.336,40.261 708.493,38.583C693.734,37.269 693.782,38.596 692.522,38.383C678.989,36.087 653.395,40.817 643.512,40.316C630.318,39.647 601.57,44.953 585.482,43.799C570.962,42.758 570.658,43.751 568.497,43.608C553.774,42.633 553.773,43.651 552.497,43.546C536.542,42.23 534.69,45.048 518.488,42.903Z" style="fill:rgb(57,57,57);" transform="matrix(0.3444 0.0376 -0.0375 0.3441 91.4054 -5.8515)"/>
  <path d="M665.5,1023.999L656.5,1023.999C656.717,1021.212 657.22,992.19 656.469,985.502C655.16,973.85 652.944,974.238 652.322,962.509C651.53,947.558 622.153,893.259 624.91,858.528C626.481,838.736 626.095,833.428 639.054,805.292C652.057,777.062 680.009,746.793 684.219,742.234C700.114,725.022 699.536,724.492 717.239,709.195C717.727,708.773 738.007,693.177 738.661,692.747C744.742,688.757 771.222,668.604 777.281,665.079C781.588,662.573 780.725,661.549 794.231,652.107C795.643,651.119 797.62,647.772 804.7,642.882C814.777,635.921 800.486,654.678 791.859,660.967C789.275,662.851 763.758,681.453 759.258,684.079C758.009,684.808 758.281,685.152 744.634,694.697C743.192,695.705 743.693,696.32 727.28,708.211C701.449,726.925 676.85,760.378 664.973,773.935C664.719,774.223 657.325,785.595 656.664,786.612C633.904,821.615 629.456,856.632 633.464,873.507C644.736,920.966 650.158,920.96 654.401,937.526C655.71,942.634 661.112,952.965 662.428,967.506C662.879,972.49 665.525,972.212 664.835,990.519C664.282,1005.19 664.254,1010.955 665.5,1023.999Z" style="fill:rgb(55,55,55);" transform="matrix(0.3444 0.0376 -0.0375 0.3441 91.4054 -5.8515)"/>
  <path d="M62.891,573.494C62.83,571.25 62.352,553.756 60.295,545.549C53.142,517.017 43.72,503.218 43.23,500.559C38.979,477.485 57.162,460.966 64.155,449.284C70.202,439.182 82.142,427.117 85.898,421.787C89.228,417.059 92.318,415.523 93.354,414.36C123.103,380.976 148.168,360.037 167.442,343.435C185.706,327.705 185.183,327.177 186.813,325.865C213.147,304.676 232.495,265.357 237.687,260.767C244.486,254.757 232.383,276.363 231.683,277.611C224.416,290.585 213.969,305.325 212.121,308.274C209.695,312.146 186.882,334.494 183.891,336.971C170.524,348.044 154.115,363.229 151.291,365.208C144.247,370.144 122.331,392.231 120.375,394.381C102.884,413.598 86.456,425.325 60.859,465.707C44.704,491.192 49.813,493.712 61.266,521.595C70.235,543.428 69.905,574.816 69.856,579.499C69.754,589.28 72.469,591.718 69.336,595.366C60.904,605.181 62.674,583.579 62.891,573.494Z" style="fill:rgb(50,50,50);" transform="matrix(0.3444 0.0376 -0.0375 0.3441 91.4054 -5.8515)"/>
  <path d="M494.423,621.543C497.949,627.262 497.968,627.144 500.963,633.268C501.678,634.729 507.135,639.051 501.318,644.275C499.714,645.716 494.375,646.073 493.201,641.575C490.189,630.039 487.641,631.28 482.181,620.653C478.584,613.653 473.069,613.814 471.365,599.513C471.304,599.005 473.679,573.695 487.646,554.605C503.998,532.256 504.682,532.867 523.642,513.634C524.42,512.845 535.322,502.792 550.643,494.765C553.054,493.501 580.629,479.052 580.785,478.959C591.119,472.817 596.421,472.37 594.123,476.264C593.775,476.852 585.162,482.76 584.369,483.304C567.25,495.046 539.916,501.424 512.115,534.184C506.599,540.683 506.171,540.224 501.002,547.1C488.114,564.245 486.338,563.863 480.388,592.478C478.219,602.911 490.245,614.133 494.423,621.543Z" style="fill:rgb(49,49,49);" transform="matrix(0.3444 0.0376 -0.0375 0.3441 91.4054 -5.8515)"/>
  <path d="M528.615,384.928C507.858,391.534 507.776,391.608 489.891,403.997C489.193,404.48 489.495,404.827 481.829,410.884C461.284,427.117 436.245,465.07 433.564,474.515C431.948,480.211 421.299,483.348 422.895,475.573C424.217,469.132 459.498,422.329 464.659,417.676C469.559,413.258 494.892,393.749 496.618,392.715C522.38,377.287 538.633,378.369 567.571,368.721C570.219,367.839 574.668,366.355 601.363,360.044C617.663,356.191 618.044,357.727 633.379,351.237C639.786,348.526 637.594,353.104 637.33,353.346C627.809,362.088 610.899,362.624 583.566,370.732C581.573,371.323 581.445,370.731 558.383,377.147C543.457,381.3 543.581,381.335 528.615,384.928Z" style="fill:rgb(55,55,55);" transform="matrix(0.3444 0.0376 -0.0375 0.3441 91.4054 -5.8515)"/>
  <path d="M107.77,929.278C121.448,953.368 117.047,954.831 115.922,982.513C115.756,986.592 113.579,1007.31 106.514,1007.75C98.98,1008.221 107.716,999.986 109.182,988.46C114.547,946.258 106.469,945.084 91.997,919.198C88.024,912.092 87.428,912.555 83.697,905.393C65.765,870.969 67.213,854.949 55.16,846.978C45.818,840.801 44.328,842.485 40.038,835.817C40.029,835.804 35.087,831.586 32.823,817.489C30.102,800.543 36.168,793.673 35.401,799.501C33.893,810.97 33.331,813.949 36.593,818.417C36.802,818.703 37.874,824.598 44.552,831.45C46.382,833.327 47.955,832.839 48.72,834.389C53.881,844.849 61.776,836.915 63.827,842.358C66.414,849.224 74.981,866.068 75.803,869.423C79.443,884.268 81.85,883.233 87.72,897.408C87.749,897.477 87.733,898.368 99.152,915.717C103.603,922.479 103.21,922.617 107.77,929.278Z" style="fill:rgb(53,53,53);" transform="matrix(0.3444 0.0376 -0.0375 0.3441 91.4054 -5.8515)"/>
  <path d="M226.595,743.376C225.414,744.773 224.965,744.551 224.832,746.433C224.775,747.231 221.259,750.546 221.238,750.575C218.582,745.193 203.108,728.584 201.841,724.401C199.115,715.394 199.587,715.374 196.793,706.39C195.65,702.715 193.626,702.636 197.522,670.502C198.871,659.374 198.065,651.741 219.85,622.77C232.199,606.347 271.684,586.212 277.154,579.214C278.421,577.592 285.933,566.587 286.82,570.357C287.401,572.826 282.648,582.932 275.292,588.205C265.184,595.452 254.574,601.778 252.725,602.88C251.011,603.902 251.265,604.223 232.819,617.903C232.161,618.391 211.584,637.176 207.011,657.359C205.029,666.108 201.539,696.766 204.73,704.406C211.608,720.874 208.427,722.577 219.878,736.169C224.392,741.526 225.991,742.869 226.595,743.376Z" style="fill:rgb(55,55,55);" transform="matrix(0.3444 0.0376 -0.0375 0.3441 91.4054 -5.8515)"/>
  <path d="M569.569,164.944C565.821,165.396 541.434,168.337 522.489,168.17C521.85,168.164 521.917,168.473 514.539,168.994C510.48,169.281 480.727,174.202 466.508,175.633C464.982,175.787 398.347,189.249 376.804,204.962C370.095,209.855 355.792,222.213 364.811,209.725C365.708,208.483 378.191,196.999 384.643,193.772C409.917,181.129 430.351,178.129 434.502,177.519C436.587,177.213 442.72,174.336 454.413,172.006C463.517,170.192 463.344,169.837 472.52,168.724C513.88,163.708 513.722,162.615 536.462,162.085C551.845,161.727 571.495,159.124 574.526,158.722C578.037,158.257 578.005,158.774 581.434,158.195C589.88,156.77 589.876,157.828 598.486,157.669C599.898,157.642 600.24,159.416 598.707,159.867C587.154,163.27 574.476,164.308 569.569,164.944Z" style="fill:rgb(55,55,55);" transform="matrix(0.3444 0.0376 -0.0375 0.3441 91.4054 -5.8515)"/>
  <path d="M678.481,197.963C680.643,198.13 700.254,199.65 705.436,200.773C710.28,201.824 724.781,201.165 726.462,201.089C730.796,200.892 737.614,202.031 749.388,198.178C752.403,197.191 769.373,186.585 764.587,194.554C763.074,197.074 749.297,207.271 727.503,207.761C684.273,208.731 678.453,201.809 654.515,207.573C652.518,208.054 651.606,206.299 635.801,217.924C622.011,228.067 618.819,236.442 607.18,247.132C603.582,250.435 594.712,262.936 591.863,259.193C589.876,256.584 606.775,239.785 608.283,238.286C615.919,230.695 631.209,205.869 661.456,199.328C669.935,197.494 669.896,197.868 678.481,197.963Z" style="fill:rgb(50,50,50);" transform="matrix(0.3444 0.0376 -0.0375 0.3441 91.4054 -5.8515)"/>
  <path d="M1.5,1023.999C1.388,1023.512 0.112,1024.486 0,1023.999C-0.487,1021.888 0,1019.666 0,1017.5L0,1.5C0.196,2.26 0.836,1.713 1.035,2.484C1.044,2.516 1.035,2.503 1.034,5.5C1.034,7.5 1.034,9.5 1.034,11.5C1.034,1019.125 1.003,1019.136 1.299,1022.627L1.5,1023.999Z" style="fill:white;fill-opacity:0.47;" transform="matrix(0.3444 0.0376 -0.0375 0.3441 91.4054 -5.8515)"/>
  <path d="M655.5,1023.999L1.5,1023.999L1.299,1022.627C8.737,1022.512 8.705,1022.562 651.5,1022.5C654.49,1022.5 654.484,1022.493 654.5,1022.499C655.457,1022.858 654.598,1023.661 655.5,1023.999Z" style="fill:white;fill-opacity:0.47;" transform="matrix(0.3444 0.0376 -0.0375 0.3441 91.4054 -5.8515)"/>
  <path d="M740.254,419.309C732.697,429.812 733.098,429.973 725.39,440.413C719.827,447.947 719.982,458.011 712.693,461.985C710.579,463.138 709.67,465.003 709.215,462.61C708.891,460.909 715.107,445.605 716.742,442.633C727.987,422.193 741.849,409.875 756.232,375.391C763.213,358.655 765.47,359.815 767.811,353.626C768.078,352.922 770.725,345.923 772.488,345.456C782.312,342.854 767.931,361.522 762.336,377.438C757.192,392.068 755.069,391.085 751.726,400.582C750.05,405.343 741.263,417.871 740.254,419.309Z" style="fill:rgb(54,54,54);" transform="matrix(0.3444 0.0376 -0.0375 0.3441 91.4054 -5.8515)"/>
  <path d="M282.244,190.619C282.005,192.695 281.624,192.943 259.338,203.163C254.967,205.168 239.577,210.927 234.508,212.53C233.134,212.965 233.316,213.421 217.592,218.751C214.069,219.945 212.923,220.333 175.397,238.293C169.807,240.968 159.408,248.193 161.458,243.479C163.284,239.278 174.325,236.965 193.688,224.793C213.725,212.196 241.974,205.688 250.275,202.038C262.206,196.792 261.982,196.445 274.535,192.632C275.702,192.277 281.182,189.95 281.394,189.949C281.755,189.947 281.883,190.621 282.244,190.619Z" style="fill:rgb(59,59,59);" transform="matrix(0.3444 0.0376 -0.0375 0.3441 91.4054 -5.8515)"/>
  <path d="M428.227,955.187C427.713,955.468 420.443,960.443 420.08,957.617C419.878,956.048 422.265,957.366 431.759,941.66C444.837,920.026 453.173,916.021 465.86,880.632C467.922,874.881 473.642,873.919 472.142,878.397C461.788,909.314 433.424,949.633 428.227,955.187Z" style="fill:rgb(57,57,57);" transform="matrix(0.3444 0.0376 -0.0375 0.3441 91.4054 -5.8515)"/>
  <path d="M329.895,298.412C329.259,292.94 329.202,293.008 328.654,287.485C326.647,267.263 346.977,231.512 349.429,233.574C353.048,236.618 337.329,254.273 335.866,282.521C335.434,290.853 342.784,299.355 337.212,303.119C330.247,307.824 330.028,298.984 329.895,298.412Z" style="fill:rgb(50,50,50);" transform="matrix(0.3444 0.0376 -0.0375 0.3441 91.4054 -5.8515)"/>
  <path d="M133.393,75.119C147.56,72.06 148.392,66.241 164.534,55.549C170.351,51.696 167.39,57.744 166.027,59.048C144.567,79.565 143.047,78.626 133.395,81.137C122.056,84.088 117.65,86.872 116.433,86.739C112.846,86.346 118.944,83.289 119.273,83.124C126.55,79.477 125.852,78.353 133.393,75.119Z" style="fill:rgb(53,53,53);" transform="matrix(0.3444 0.0376 -0.0375 0.3441 91.4054 -5.8515)"/>
  <path d="M819.999,1022.5C819.512,1022.612 820.486,1023.887 819.999,1023.999C816.218,1024.871 816.168,1023.999 771.5,1023.999L666.5,1023.999C667.038,1023.73 666.962,1022.768 667.5,1022.499C667.535,1022.481 667.524,1022.503 819.999,1022.5Z" style="fill:white;fill-opacity:0.47;" transform="matrix(0.3444 0.0376 -0.0375 0.3441 91.4054 -5.8515)"/>
  <path d="M92.806,332.633C93.931,330.137 106.598,296.722 108.465,296.384C112.747,295.607 103.126,312.504 102.824,315.529C101.68,326.965 95.869,340.459 93.379,342.339C87.628,346.68 88.013,347.111 87.458,347.394C82.337,350.01 90.362,338.253 92.806,332.633Z" style="fill:rgb(60,60,60);" transform="matrix(0.3444 0.0376 -0.0375 0.3441 91.4054 -5.8515)"/>
  <path d="M226.595,743.376C228.734,744.97 235.428,748.039 232.358,756.441C230.978,760.214 217.979,769.456 221.528,755.507C222.164,753.006 221.667,753.092 221.238,750.575C221.259,750.546 224.775,747.231 224.832,746.433C224.965,744.551 225.414,744.773 226.595,743.376Z" style="fill:rgb(43,43,43);" transform="matrix(0.3444 0.0376 -0.0375 0.3441 91.4054 -5.8515)"/>
  <path d="M191.505,24.516C191.3,24.034 190.503,23.991 190.298,23.509C189.693,22.088 210.003,1.262 207.599,9.535C207.354,10.379 192.818,23.345 191.505,24.516Z" style="fill:rgb(78,78,78);" transform="matrix(0.3444 0.0376 -0.0375 0.3441 91.4054 -5.8515)"/>
  <path d="M116.687,846.798C116.396,846.978 111.895,849.766 112.476,847.493C113.165,844.791 122.576,841.779 116.687,846.798Z" style="fill:rgb(90,90,90);" transform="matrix(0.3444 0.0376 -0.0375 0.3441 91.4054 -5.8515)"/>
  <path d="M811.461,48.504C810.184,53.946 808.883,47.483 809.619,46.571C811.077,44.763 811.439,48.291 811.461,48.504Z" style="fill:rgb(219,219,219);" transform="matrix(0.3444 0.0376 -0.0375 0.3441 91.4054 -5.8515)"/>
  <path d="M819.999,433.5L819.999,438.5C819.838,438.06 819.122,437.992 818.961,437.551C818.195,435.452 818.943,435.517 819.999,433.5Z" style="fill:rgb(105,105,105);" transform="matrix(0.3444 0.0376 -0.0375 0.3441 91.4054 -5.8515)"/>
  <path d="M303.526,474.478C303.4,475.814 303.849,476.755 302.558,476.236C300.887,475.563 301.673,473.878 302.464,473.873C302.871,473.871 303.119,474.48 303.526,474.478Z" style="fill:rgb(228,228,228);" transform="matrix(0.3444 0.0376 -0.0375 0.3441 91.4054 -5.8515)"/>
  <path d="M783.204,40.223C784.267,39.702 784.302,39.101 785.158,39.924C785.938,40.673 785.31,40.695 784.5,41.775L783.204,40.223Z" style="fill:rgb(172,172,172);" transform="matrix(0.3444 0.0376 -0.0375 0.3441 91.4054 -5.8515)"/>
  <path d="M783.204,40.223L784.5,41.775C782.951,40.858 782.867,40.935 782.827,40.785C782.72,40.376 783.314,40.64 783.204,40.223Z" style="fill:rgb(193,193,193);" transform="matrix(0.3444 0.0376 -0.0375 0.3441 91.4054 -5.8515)"/>
  <path d="M552.672,696.608C550.578,694.351 550.48,693.608 547.546,694.786C547.263,694.9 547.321,696.36 547.326,696.498C547.465,700.003 541.959,699.25 544.563,701.487C545.803,702.553 546.47,702.377 546.5,702.479C546.818,703.557 545.81,703.493 546.209,704.5C546.601,705.489 547.362,704.653 547.753,705.641C532.634,734.623 529.387,740.83 521.684,765.543C518.397,778.793 513.941,814.223 518.568,825.469C523.094,836.466 554.565,876.994 547.637,908.548C538.258,935.727 522.143,939.224 509.777,950.793C498.616,961.236 498.117,960.573 487.737,971.718C472.698,987.867 470.407,984.999 453.155,999.112C443.297,1007.176 436.662,992.781 447.463,989.388C447.806,989.28 464.903,977.593 465.29,977.252C467.698,975.13 467.656,975.169 470.225,973.163C485.149,961.239 483.085,959.116 497.87,946.91C507.896,938.633 507.437,938.154 518.309,931.173C532.364,922.148 541.028,901.561 538.867,891.438C529.758,848.757 509.29,835.136 507.837,819.474C507.452,815.323 506.077,800.509 511.411,767.486C514.609,747.685 540.767,691.107 551.974,680.961C593.044,643.776 606.33,644.913 634.269,629.113C637.451,627.314 656.892,608.569 658.793,593.539C663.694,554.776 653.436,548.572 629.236,511.673C603.639,472.645 598.992,466.216 592.329,409.52C589.611,386.39 600.254,377.765 589.636,319.475C589.138,316.742 588.456,316.892 582.6,285.479C574.88,244.072 580.769,241.86 559.431,205.545C556.819,201.099 557.328,200.039 555.462,200.396C554.667,200.548 554.015,204.361 550.555,203.33C539.286,199.971 538.971,202.421 536.438,201.671C532.912,200.628 530.116,189.079 539.506,190.443C550.191,191.996 554.555,194.724 552.468,191.507C550.819,188.965 543.76,170.03 543.886,158.507C543.914,155.917 544.04,144.293 553.771,127.669C559.171,118.444 561.897,120.901 580.587,100.59C583.501,97.424 584.345,98.302 586.799,94.701C587.499,93.674 588.299,94.623 598.74,84.744C604.818,78.994 604.773,78.603 605.432,78.874C606.261,79.216 613.361,82.141 612.583,87.513C612.058,91.144 608.737,87.525 604.701,90.763C551.749,133.229 534.269,151.329 573.235,215.672C588.441,240.782 580.039,243.514 595.929,311.38C612.008,380.054 597.256,384.56 601.332,414.52C608.64,468.234 610.362,471.707 655.125,535.746C657.232,538.761 665.093,553.852 665.585,555.471C671.29,574.248 668.984,601.457 663.135,611.297C645.724,640.586 634.319,640.105 617.546,649.586C613.963,651.611 593.202,657.46 562.066,686.071C556.854,690.862 556.951,690.873 552.672,696.608Z" style="fill:rgb(44,44,44);" transform="matrix(0.3607 -0.0518 0.0517 0.36 -31.244 39.069)"/>
  <path d="M416.27,834.437C420.973,817.728 426.7,778.706 420.289,749.545C419.674,746.745 413.964,701.191 417.667,668.518C424.187,610.98 415.804,610.132 427.722,553.551C437.35,507.847 440.52,508.751 445.635,490.538C447.81,482.794 450.242,455.684 447.782,442.455C443.037,416.935 452.908,412.829 430.043,384.892C419.267,371.725 421.194,370.61 413.17,355.667C400.639,332.33 403.187,328.652 387.609,282.468C385.635,276.615 384.74,273.964 381.104,205.535C379.266,170.954 379.394,170.23 361.44,140.538C351.211,123.622 346.995,117.653 373.346,97.306C383.868,89.182 383.147,88.359 394.295,81.206C406.493,73.379 406.629,73.487 407.236,72.391C409.912,67.56 419.688,72.641 416.8,77.655C414.037,82.452 415.05,83.319 410.332,86.201C406.94,88.273 406.26,83.068 403.431,84.348C401.311,85.308 386.944,93.942 371.169,109.147C359.617,120.283 358.036,122.888 366.976,136.199C395.237,178.279 384.763,182.272 391.904,234.435C393.694,247.512 389.146,262.328 400.222,294.584C412.243,329.59 408.68,331.006 421.174,352.698C427.212,363.182 427.13,368.76 435.003,377.935C457.383,404.016 453.001,406.764 457.771,448.455C459.114,460.19 457.138,486.153 455.204,492.414C452.459,501.299 428.658,562.411 429.694,620.487C430.357,657.714 423.528,678.025 426.367,721.51C428.599,755.705 437.418,765.165 429.355,821.483C427.613,833.65 422.119,847.231 421.247,849.386C419.76,853.062 401.419,891.247 397.054,903.353C395.184,908.54 393.028,915.652 383.671,912.066C373.131,908.027 369.627,872.763 377.942,895.343C379.213,898.793 379.696,898.397 381.794,901.305C383.397,903.526 383.892,903.686 386.188,902.259C397.704,877.265 396.828,876.971 409.168,852.344C410.039,850.605 415.716,835.875 416.27,834.437Z" style="fill:rgb(44,44,44);" transform="matrix(0.3607 -0.0518 0.0517 0.36 -31.244 39.069)"/>
  <path d="M273.647,94.779C271.099,92.205 271.04,91.711 267.47,92.217C267.457,92.219 260.522,97.35 262.433,97.532C264.457,97.725 264.111,98.259 265.555,99.57C243.213,117.812 260.983,130.797 272.313,155.587C295.527,206.384 282.962,214.783 286.143,233.561C289.127,251.175 286.86,263.71 288.174,271.57C289.831,281.485 289.504,281.487 288.941,291.53C289.211,302.805 288.95,305.141 288.697,307.525C288.45,309.866 286.862,324.878 293.342,336.585C307.223,361.663 313.304,365.571 319.278,371.721C321.852,374.372 336.749,389.711 336.707,414.497C336.666,438.765 338.69,452.315 281.683,485.801C267.181,494.32 268.436,497.473 272.424,523.513C274.987,540.245 291.01,546.321 300.9,624.463C304.061,649.436 299.199,649.895 303.107,663.605C308.447,682.344 307.776,682.412 311.709,701.439C311.517,701.7 312.146,702.118 311.954,702.379C311.657,702.784 310.658,702.143 310.139,704.5C309.294,708.334 307.541,709.584 310.5,710.179C310.958,710.272 311.432,709.929 311.5,709.88C313.39,708.516 312.497,708.02 312.806,707.443C314.05,719.397 310.898,723.672 309.944,728.581C307.966,738.764 297.041,763.078 291.586,772.554C285.762,782.671 274.728,766.857 273.292,761.533C271.119,753.471 280.952,766.085 282.587,765.853C284.739,765.548 300.248,733.63 302.729,714.522C304.238,702.905 295.509,670.107 294.491,666.502C289.587,649.132 295.348,635.562 288.794,602.44C276.083,538.191 265.881,538.896 263.547,524.492C260.534,505.907 259.175,501.046 262.208,489.418C264.964,478.848 280.138,478.313 295.86,465.955C316.763,449.525 328.401,441.02 327.379,415.504C326.636,396.944 323.78,391.654 317.013,380.809C313.952,375.903 311.69,377.858 300.925,363.177C269.998,321.003 281.74,312.411 279.398,276.505C278.165,257.597 279.536,247.234 277.689,236.47C273.178,210.18 287.247,207.076 264.087,154.689C261.858,149.647 243.176,123.271 247.531,110.51C250.724,101.154 253.406,100.103 258.19,95.213C278.73,74.215 294.553,86.832 296.239,89.632C297.535,91.786 291.123,105.56 287.495,95.502C285.508,89.995 280.05,92.15 273.647,94.779Z" style="fill:rgb(42,42,42);" transform="matrix(0.3607 -0.0518 0.0517 0.36 -31.244 39.069)"/>
  <path d="M206.554,723.5C207.753,690.325 207.133,690.364 207.374,687.493C208.762,670.939 207.182,670.487 214.296,655.42C216.174,651.442 213.244,646.543 219.833,634.679C231.394,613.863 266.88,618.655 240.17,567.664C234.676,557.177 229,555.796 223.862,542.354C209.352,504.396 200.873,496.343 200.664,480.502C200.36,457.414 199.997,427.967 224.378,416.238C235.339,410.965 244.563,396.708 252.141,391C260.82,384.463 255.343,370.628 247.866,361.212C231.636,340.775 236.273,332.474 232.774,315.435C229.024,297.172 230.445,295.373 232.027,275.482C233.387,258.37 229.396,221.582 229.195,220.552C225.357,200.939 215.753,181.955 214.798,180.405C202.437,160.342 206.326,96.983 216.784,78.666C220.034,72.973 243.808,68.369 243.082,79.482C242.664,85.886 238.562,79.886 237.542,79.932C231.084,80.225 225.675,83.394 224.749,83.937C214.016,90.227 213.494,144.672 214.445,145.551C215.605,146.626 222.016,139.805 230.753,133.864C242.759,125.699 245.604,138.052 241.561,139.651C223.586,146.761 224.326,158.147 218.504,157.449C217.802,157.365 217.128,157.042 216.422,157.053C213.908,157.089 216.775,169.484 221.673,179.411C240.524,217.616 237.44,231.37 239.405,249.506C242.238,275.648 238.85,281.287 238.789,297.489C238.775,301.085 242.061,340.955 248.618,350.418C258.729,365.01 260.36,364.296 264.848,381.435C267.955,393.3 254.879,399.01 249.181,406.266C236.649,422.224 222.443,427.284 219.906,430.795C207.348,448.172 209.131,465.798 208.96,472.499C208.463,491.978 210.592,491.697 218.052,509.686C225.571,527.817 226.628,527.276 230.774,538.399C237.019,555.149 241.814,552.435 249.083,568.681C265.007,604.274 260.216,615.184 241.205,627.043C214.541,643.677 228.332,659.798 222.455,666.464C218.669,670.759 218.576,670.843 217.862,676.577C217.703,677.855 215.897,692.356 215.893,692.548C214.901,739.107 211.949,739.481 215.627,749.432C216.562,751.961 217.875,748.824 222.535,750.419C226.265,751.697 224.754,753.228 221.934,755.952C218.516,759.252 220.401,763.352 216.507,763.292C205.842,763.125 206.604,739.171 206.439,729.503C207.293,729.321 207.079,728.71 209.583,728.835C211.311,728.921 211.623,728.022 210.285,726.816C208.404,725.121 208.871,724.662 206.554,723.5Z" style="fill:rgb(43,43,43);" transform="matrix(0.3607 -0.0518 0.0517 0.36 -31.244 39.069)"/>
  <path d="M200.69,303.599C198.246,307.195 198.262,307.169 194.425,309.389C189.525,312.224 197.488,318.138 202.077,329.681C211.78,354.091 211.382,355.554 200.226,379.37C195.887,388.634 191.091,401.166 173.885,418.853C165.986,426.973 163.291,435.855 153.615,442.649C118.595,467.239 186.73,484.857 190.902,522.449C193.703,547.688 184.851,547.474 187.651,572.491C191.054,602.89 181.243,601.669 178.186,614.433C175.42,625.978 173.728,625.46 171.908,636.585C171.101,641.523 163.397,642.584 159.119,631.62C158.169,629.185 159.572,627.859 161.289,629.815C163.789,632.662 163.125,628.699 170.081,611.322C177.465,592.876 180.965,593.273 179.163,573.53C176.801,547.634 183.39,543.506 182.681,530.494C181.859,515.432 183.198,506.463 149.826,480.092C146.702,477.623 129.365,457.079 136.585,446.555C145.019,434.261 148.559,437.38 158.789,422.687C165.085,413.645 180.233,406.695 197.519,363.507C200.415,356.272 204.366,346.584 189.086,320.746C187.105,317.397 186.512,318.086 183.839,316.063C183.015,315.44 184.32,314.617 176.93,305.151C168.95,294.929 168.481,293.741 163.197,279.636C161.977,276.38 159.37,282.244 159.296,282.347C151.178,293.734 156.143,296.851 150.192,301.054C148.02,302.588 137.535,297.023 147.055,282.202C149.355,278.621 148.883,278.4 152.019,274.101C156.236,268.32 158.039,274.568 160.433,274.069C161.784,273.788 160.811,273.036 155.138,257.65C154.941,257.117 148.955,251.149 148.402,250.598C139.121,241.345 129.252,244.407 129.7,235.511C129.788,233.753 132.331,227.929 150.617,242.351C155.491,246.195 154.606,240.22 154.66,239.512C156.419,216.76 163.843,218.275 165.347,195.496C165.628,191.235 163.525,159.359 158.459,146.515C147.797,119.485 146.049,114.757 161.992,79.707C171.542,58.71 175.889,62.871 178.525,62.861C178.591,62.861 194.873,56.192 192.149,62.387C191.065,64.849 175.412,70.003 170.768,79.624C152.123,118.259 155.702,120.441 165.627,146.454C169.574,156.799 169.159,161.307 173.426,193.508C173.503,194.09 173.046,209.542 168.932,219.699C166.251,226.318 157.49,243.48 163.907,262.366C175.016,295.063 182.069,301.59 184.811,304.127C187.398,306.521 188.461,299.614 191.795,296.868C201.404,288.954 200.3,283.2 207.261,286.999C211.621,289.379 207.445,292.178 200.69,303.599Z" style="fill:rgb(42,42,42);" transform="matrix(0.3607 -0.0518 0.0517 0.36 -31.244 39.069)"/>
  <path d="M109.1,77.844C107.719,72.491 117.736,67.954 132.422,87.558C133.925,89.564 134.66,90.887 135.715,88.666C139.827,80.013 146.119,71.292 148.385,71.965C163.796,76.539 144.238,86.161 145.84,95.443C147.202,103.339 139.907,99.758 139.48,99.686C137.53,99.357 139.166,103.28 139.286,103.567C141.949,109.953 142.215,129.697 136.572,140.53C134.012,145.443 138.282,142.543 138.459,142.422C142.718,139.53 155.72,143.525 146.821,149.959C132.62,160.226 130.093,159.873 128.447,159.643C124.573,158.614 124.966,160.263 122.55,163.54C109.635,181.066 102.894,214.124 102.253,219.471C101.321,227.245 110.747,247.79 117.076,256.801C140.326,289.897 137.648,297.534 142.15,313.608C158.505,372.014 143.85,382.223 119.742,405.73C111.378,413.886 101.874,432.608 100.886,439.572C94.887,481.827 134.879,504.625 143.553,523.474C148.134,533.43 157.2,553.203 150.376,563.42C140.948,577.538 137.759,602.515 125.185,615.178C118.374,622.037 108.975,609.01 109.659,607.539C110.853,604.97 114.087,610.802 116.529,611.181C120.612,611.815 132.445,583.11 132.624,582.545C141.086,555.693 147.779,555.982 142.459,540.516C137.944,527.391 133.174,520.366 132.092,518.772C126.766,510.927 127.026,519.16 127.123,519.551C127.695,521.856 128.384,523.047 124.554,523.766C117.463,525.099 119.271,528.037 113.193,532.035C108.365,535.21 108.815,535.666 104.183,539.027C102.858,539.989 100.072,540.292 98.518,537.488C92.256,526.198 108.963,528.608 117.916,510.676C119.671,507.162 122.523,509.307 122.52,507.499C122.511,502.947 110.554,499.438 97.345,471.571C88.259,452.402 93.433,432.745 94.921,429.703C102.837,413.527 105.633,407.447 127.308,386.332C129.294,388.398 129.035,389.042 130.598,388.81C133.416,388.391 128.571,385.467 128.283,385.293C132.085,380.412 144.272,368.459 140.484,340.502C137.661,319.666 136.168,320.016 131.607,299.475C125.666,272.727 116.492,276.773 96.491,229.504C90.451,215.229 106.388,174.986 111.975,165.801C127.169,140.824 130.576,142.04 134.683,117.527C135.349,113.556 133.716,84.921 116.165,78.928C116.214,78.368 116.735,77.919 116.784,77.36C116.944,75.537 112.392,76.497 111.536,76.381C109.218,76.066 109.335,77.703 109.1,77.844Z" style="fill:rgb(42,42,42);" transform="matrix(0.3607 -0.0518 0.0517 0.36 -31.244 39.069)"/>
  <path d="M133.539,987.506C132.919,997.07 133.193,999.138 113.335,1011.205C101.866,1018.174 96.024,1013.623 100.493,1010.492C103.434,1008.432 121.147,1003.106 122.542,990.505C124.212,975.417 119.928,974.84 114.368,956.54C112.193,949.381 111.65,949.134 114.641,940.549C114.974,939.593 114.921,939.59 118.527,928.509C120.791,921.55 129.647,906.035 128.018,887.555C127.659,883.481 128.024,883.526 127.865,879.483C127.758,876.777 124.833,864.764 124.524,863.495C117.075,832.903 92.611,829.69 85.207,806.593C77.21,781.642 78.325,779.56 79.446,777.466C79.575,777.224 97.659,753.684 102.646,750.766C114.186,744.016 126.273,744.338 122.003,753.233C121.532,754.213 119.903,753.046 114.181,764.344C112.743,767.183 105.354,768.834 109.329,760.416C110.922,757.043 114.154,754.562 110.504,755.526C106.232,756.654 85.963,777.872 87.87,784.43C96.065,812.611 97.417,814.937 111.278,826.791C135.461,847.473 136.39,864.496 138.1,878.558C140.955,902.033 138.83,902.043 132.685,923.543C130.66,930.628 129.189,930.106 128.077,937.445C127.397,941.932 121.12,945.587 127.849,962.387C132.71,974.524 133.843,974.366 133.539,987.506Z" style="fill:rgb(43,43,43);" transform="matrix(0.3607 -0.0518 0.0517 0.36 -31.244 39.069)"/>
  <path d="M771.999,1022.5C771.512,1022.612 772.486,1023.887 771.999,1023.999C767.751,1024.979 767.698,1023.999 717.5,1023.999L0,1023.999C-1.027,1022.092 0,1019.666 0,1017.5L0,1.5C0.194,2.251 0.866,1.613 1.063,2.376C1.284,3.231 1.041,3.197 1.034,5.5C1.028,7.5 1.034,9.5 1.034,11.5C1.034,1021.394 1.031,1021.341 1.061,1021.62C1.235,1023.264 3.643,1022.84 6.5,1022.84C768.083,1022.84 768.097,1022.879 771.999,1022.5Z" style="fill:rgb(254,254,254);fill-opacity:0.47;" transform="matrix(0.3607 -0.0518 0.0517 0.36 -31.244 39.069)"/>
  <path d="M322.429,656.219C334.371,652.297 332.973,649.992 344.136,641.05C347.036,638.726 348.763,632.629 355.018,639.906C359.727,645.385 336.24,662.649 329.609,665.724C325.706,667.534 327.679,669.092 327.204,670.433C325.247,675.958 315.302,667.451 315.242,664.514C315.108,657.996 316.003,657.281 322.429,656.219Z" style="fill:rgb(41,41,41);" transform="matrix(0.3607 -0.0518 0.0517 0.36 -31.244 39.069)"/>
  <path d="M189.52,696.886C187.991,697.102 173.407,699.159 172.787,706.507C172.346,711.749 188.338,697.586 188.793,704.469C189.046,708.303 168.537,722.845 165.137,713.641C157.181,692.108 186.354,685.325 189.524,686.415C196.711,688.886 197.018,691.747 197.1,692.521C197.487,696.128 190.217,696.82 189.52,696.886Z" style="fill:rgb(44,44,44);" transform="matrix(0.3607 -0.0518 0.0517 0.36 -31.244 39.069)"/>
  <path d="M465.585,555.892C458.988,557.381 457.733,557.467 454.998,551.271C453.345,547.525 456.495,544.32 458.476,544.203C462.522,543.963 469.356,546.008 489.502,536.505C492.246,535.211 508.167,540.401 489.618,548.756C477.051,554.417 468.675,555.361 465.585,555.892Z" style="fill:rgb(34,34,34);" transform="matrix(0.3607 -0.0518 0.0517 0.36 -31.244 39.069)"/>
  <path d="M420.672,491.719C419.953,492.221 414.199,496.237 410,489.227C408.431,486.608 409.871,471.589 413.627,469.818C414.152,469.57 414.096,469.645 420.319,467.013C426.33,464.47 428.54,457.478 434.137,462.875C444.784,473.14 425.222,473.275 420.944,479.765C419.833,481.45 422.829,483.061 423.604,484.431C425.466,487.719 422.603,489.898 420.672,491.719Z" style="fill:rgb(27,27,27);" transform="matrix(0.3607 -0.0518 0.0517 0.36 -31.244 39.069)"/>
  <path d="M304.457,480.907C331.9,481.649 328.831,462.416 334.185,467.81C334.843,468.473 337.307,470.954 335.281,479.434C332.919,489.325 305.158,495.285 300.523,490.478C298.14,488.006 298.272,483.887 298.349,483.471C298.841,480.836 303.927,480.9 304.457,480.907Z" style="fill:rgb(36,36,36);" transform="matrix(0.3607 -0.0518 0.0517 0.36 -31.244 39.069)"/>
  <path d="M327.474,583.483C328.397,581.58 329.146,579.615 331.494,579.897C334.208,580.222 335.464,583.059 338.457,582.291C347.278,580.025 348.145,576.403 348.369,575.467C349.069,572.541 352.589,574.403 353.537,576.483C358.878,588.215 343.451,591.722 340.783,593.797C339.084,595.119 342.222,604.756 336.715,598.303C334.04,595.169 327.469,602.799 324.364,595.563C321.065,587.874 325.807,585.438 327.474,583.483Z" style="fill:rgb(36,36,36);" transform="matrix(0.3607 -0.0518 0.0517 0.36 -31.244 39.069)"/>
  <path d="M415.592,186.625C414.887,187.208 407.702,194.962 402.835,188.278C402.72,188.121 400.653,180.306 405.586,178.773C419.379,174.488 427.817,162.664 431.588,164.309C442.178,168.927 435.72,173.938 415.592,186.625Z" style="fill:rgb(36,36,36);" transform="matrix(0.3607 -0.0518 0.0517 0.36 -31.244 39.069)"/>
  <path d="M127.602,352.734C113.092,358.95 101.766,371.422 99.177,361.602C98.11,357.552 104.621,354.392 110.538,350.56C126.224,340.398 130.481,339.141 136.265,345.702C138.512,348.251 134.812,352.829 131.496,352.599C129.496,352.46 129.53,352.299 127.602,352.734Z" style="fill:rgb(49,49,49);" transform="matrix(0.3607 -0.0518 0.0517 0.36 -31.244 39.069)"/>
  <path d="M481.338,513.134C470.259,517.735 462.127,521.783 459.862,518.246C458.115,515.517 455.983,507.742 461.577,506.874C472.518,505.178 472.137,504.128 482.528,500.605C485.56,499.577 494.756,504.947 489.368,509.319C488.176,510.286 481.995,512.861 481.338,513.134Z" style="fill:rgb(35,35,35);" transform="matrix(0.3607 -0.0518 0.0517 0.36 -31.244 39.069)"/>
  <path d="M248.955,690.181C249.362,690.602 253.133,694.5 251.085,697.186C247.829,701.456 246.891,698.716 242.271,695.89C232.333,689.814 225.019,689.982 223.485,684.504C219.374,669.826 239.396,684.953 240.522,685.397C243.069,686.401 240.625,673.053 243.357,672.169C248.73,670.43 245.56,680.338 248.955,690.181Z" style="fill:rgb(35,35,35);" transform="matrix(0.3607 -0.0518 0.0517 0.36 -31.244 39.069)"/>
  <path d="M436.575,286.589C431.771,290.593 430.942,291.887 425.902,288.063C425.126,287.474 422.013,281.808 426.706,278.853C446.155,266.608 446.643,266.713 448.584,267.132C449.619,267.355 454.984,270.198 453.227,273.363C452.402,274.851 451.225,276.971 436.575,286.589Z" style="fill:rgb(34,34,34);" transform="matrix(0.3607 -0.0518 0.0517 0.36 -31.244 39.069)"/>
  <path d="M332.68,348.648C325.505,356.511 319.927,343.55 326.696,338.774C336.921,331.56 351.126,314.338 352.641,324.479C353.435,329.792 342.813,335.374 332.68,348.648Z" style="fill:rgb(57,57,57);" transform="matrix(0.3607 -0.0518 0.0517 0.36 -31.244 39.069)"/>
  <path d="M304.273,391.83C289.787,384.107 287.681,390.504 284.528,390.777C277.887,391.351 284.446,369.41 308.566,384.401C319.64,391.283 315.119,394.089 312.772,400.602C311.675,403.648 308.061,402.801 307.506,399.499C306.785,395.206 307.663,394.638 304.273,391.83Z" style="fill:rgb(30,30,30);" transform="matrix(0.3607 -0.0518 0.0517 0.36 -31.244 39.069)"/>
  <path d="M315.445,538.839C311.202,537.638 311.02,538.38 303.516,535.462C297.73,533.212 293.263,535.082 291.575,529.475C286.977,514.196 308.685,530.336 316.625,527.848C322.894,525.885 326.018,534.789 324.1,537.189C321.069,540.983 320.274,539.45 315.445,538.839Z" style="fill:rgb(34,34,34);" transform="matrix(0.3607 -0.0518 0.0517 0.36 -31.244 39.069)"/>
  <path d="M419.346,229.339C413.291,234.048 405.996,242.994 401.996,234.283C399.865,229.644 403.756,227.405 404.278,227.104C411.474,222.964 421.58,211.239 425.516,212.452C435.756,215.608 425.739,223.176 419.346,229.339Z" style="fill:rgb(29,29,29);" transform="matrix(0.3607 -0.0518 0.0517 0.36 -31.244 39.069)"/>
  <path d="M475.397,572.639C480.662,577.496 476.975,581.55 470.61,580.031C469.037,579.656 465.064,578.708 451.411,573.706C442.919,570.595 441.352,554.048 455.282,562.831C461.971,567.048 461.886,567.244 469.549,569.37C471.538,569.922 474.959,572.331 475.397,572.639Z" style="fill:rgb(39,39,39);" transform="matrix(0.3607 -0.0518 0.0517 0.36 -31.244 39.069)"/>
  <path d="M270.309,732.988C260.37,729.788 259.861,729.351 257.837,722.4C257.732,722.038 256.356,717.31 259.578,718.028C262.118,718.593 261.934,718.931 264.445,719.665C266.256,720.194 265.657,721.081 267.379,721.762C279.489,726.547 278.14,729.075 285.687,733.135C297.382,739.425 288.733,745.189 285.298,743.968C280.729,742.344 282.607,739.504 270.309,732.988Z" style="fill:rgb(35,35,35);" transform="matrix(0.3607 -0.0518 0.0517 0.36 -31.244 39.069)"/>
  <path d="M473.297,381.365C469.763,387.423 467.132,389.491 463.653,383.422C459.625,376.396 470.604,373.167 479.797,357.683C482.331,353.416 491.681,355.663 487.024,364.272C484.134,369.615 477.141,376.279 473.297,381.365Z" style="fill:rgb(40,40,40);" transform="matrix(0.3607 -0.0518 0.0517 0.36 -31.244 39.069)"/>
  <path d="M161.617,963.671C158.065,965.977 157.983,965.95 157.04,968.347C155.553,972.123 152.58,966.917 152.382,966.571C149.778,962.012 147.377,958.899 151.724,956.963C164.493,951.279 176.333,941.552 180.216,957.563C181.09,961.166 177.588,963.372 175.54,961.456C170.573,956.809 169.696,959.629 161.617,963.671Z" style="fill:rgb(41,41,41);" transform="matrix(0.3607 -0.0518 0.0517 0.36 -31.244 39.069)"/>
  <path d="M250.437,658.433C248.998,659.899 242.887,667.586 238.753,660.377C235.831,655.282 241.16,651.392 241.802,650.923C252.194,643.336 252.73,643.505 254.446,638.481C256.754,631.722 272.571,644.113 253.763,655.918C252.373,656.791 252.482,656.81 250.437,658.433Z" style="fill:rgb(37,37,37);" transform="matrix(0.3607 -0.0518 0.0517 0.36 -31.244 39.069)"/>
  <path d="M114.534,311.444C111.914,310.26 92.597,302.876 91.659,293.484C90.437,281.251 102.39,296.207 102.593,296.325C114.569,303.292 129.23,304.557 125.269,311.373C121.954,317.077 119.179,314.756 114.534,311.444Z" style="fill:rgb(47,47,47);" transform="matrix(0.3607 -0.0518 0.0517 0.36 -31.244 39.069)"/>
  <path d="M437.48,313.477C436.845,313.934 430.495,318.508 428.554,309.488C428.129,307.514 426.902,301.811 449.453,295.331C452.733,294.388 465.808,298.87 452.62,304.764C444.029,308.603 438.601,312.642 437.48,313.477Z" style="fill:rgb(40,40,40);" transform="matrix(0.3607 -0.0518 0.0517 0.36 -31.244 39.069)"/>
  <path d="M342.654,369.836C331.074,374.826 332.508,359.88 336.488,359.414C348.315,358.027 347.826,356.29 359.527,353.617C361.843,353.088 368.735,359.284 361.291,363.107C355.174,366.248 354.053,366.658 342.654,369.836Z" style="fill:rgb(51,51,51);" transform="matrix(0.3607 -0.0518 0.0517 0.36 -31.244 39.069)"/>
  <path d="M480.476,426.939C487.309,428.02 487.832,426.552 493.424,430.616C493.987,431.025 499.119,434.755 495.121,439.155C492.273,442.288 491.538,437.955 479.502,438.037C475.322,438.065 466.87,438.963 465.382,431.515C465.243,430.82 465.197,426.998 466.403,426.375C469.279,424.888 469.431,426.717 480.476,426.939Z" style="fill:rgb(38,38,38);" transform="matrix(0.3607 -0.0518 0.0517 0.36 -31.244 39.069)"/>
  <path d="M329.629,709.793C330.548,709.314 334.906,707.043 341.616,704.879C351.49,701.696 353.862,710.055 353.553,711.512C352.414,716.883 347.405,712.284 334.148,721.004C329.38,724.141 325.015,720.42 324.665,717.477C323.954,711.512 328.865,710.251 329.629,709.793Z" style="fill:rgb(43,43,43);" transform="matrix(0.3607 -0.0518 0.0517 0.36 -31.244 39.069)"/>
  <path d="M450.586,336.862C448.743,337.629 441.212,344.752 437.606,333.471C435.469,326.781 441.851,326.886 442.507,326.897C446.527,326.963 454.687,323.375 455.696,322.932C463.662,319.43 471.462,327.698 459.216,334.034C454.701,336.369 451.243,336.718 450.586,336.862Z" style="fill:rgb(36,36,36);" transform="matrix(0.3607 -0.0518 0.0517 0.36 -31.244 39.069)"/>
  <path d="M100.511,165.478C99.717,165.032 97.783,164.506 93.036,157.828C83.422,144.303 74.876,150.471 73.712,138.487C73.043,131.598 90.64,143.228 94.497,147.502C95.412,148.516 105.143,159.297 105.682,160.398C108.109,165.362 105.877,167.057 100.511,165.478Z" style="fill:rgb(43,43,43);" transform="matrix(0.3607 -0.0518 0.0517 0.36 -31.244 39.069)"/>
  <path d="M406.521,124.853C405.659,124.828 397.789,124.594 398.618,117.516C399.26,112.033 405.695,116.078 415.396,112.21C423.156,109.117 423.839,106.898 429.584,110.38C429.977,110.619 433.531,113.923 427.378,117.277C413.414,124.888 410.453,124.451 406.521,124.853Z" style="fill:rgb(46,46,46);" transform="matrix(0.3607 -0.0518 0.0517 0.36 -31.244 39.069)"/>
  <path d="M698.561,561.412C704.549,566.465 701.397,568.41 690.214,579.191C680.678,588.386 672.363,573.696 680.396,571.135C687.699,568.806 689.549,556.614 698.561,561.412Z" style="fill:rgb(52,52,52);" transform="matrix(0.3607 -0.0518 0.0517 0.36 -31.244 39.069)"/>
  <path d="M178.387,152.607C175.903,149.485 175.938,149.604 175.734,149.336C173.063,145.825 171.401,136.752 179.482,141.527C182.313,143.199 193.342,162.332 194.559,154.514C195.817,146.434 202.158,159.28 200.481,163.492C195.964,174.837 179.903,154.292 178.387,152.607Z" style="fill:rgb(32,32,32);" transform="matrix(0.3607 -0.0518 0.0517 0.36 -31.244 39.069)"/>
  <path d="M81.439,473.96C80.729,473.954 73.809,473.9 72.588,474.65C63.088,480.485 64.025,468.013 65.596,466.629C70.662,462.163 84.858,466.177 86.464,466.631C101.975,471.017 95.428,482.055 91.55,479.429C86.752,476.179 87.067,475.652 81.439,473.96Z" style="fill:rgb(36,36,36);" transform="matrix(0.3607 -0.0518 0.0517 0.36 -31.244 39.069)"/>
  <path d="M158.451,519.591C155.039,517.774 154.92,518.233 151.408,516.735C146.934,514.826 145.944,508.379 147.928,505.822C154.376,497.515 160.098,515.484 167.239,511.027C173.408,507.176 179.026,513.373 170.579,519.623C165.211,523.596 164.604,522.068 158.451,519.591Z" style="fill:rgb(37,37,37);" transform="matrix(0.3607 -0.0518 0.0517 0.36 -31.244 39.069)"/>
  <path d="M345.792,164.274C342.639,160.547 340.291,163.094 338.902,159.367C336.561,153.087 345.734,151.539 350.276,156.711C358.036,165.55 357.494,165.899 360.233,172.6C365.081,184.462 353.086,184.931 351.772,177.456C350.491,170.169 350.463,170.086 345.792,164.274Z" style="fill:rgb(49,49,49);" transform="matrix(0.3607 -0.0518 0.0517 0.36 -31.244 39.069)"/>
  <path d="M297.349,203.214C309.087,193.967 308.834,193.737 309.867,192.957C317.159,187.451 316.219,182.162 323.323,185.837C330.341,189.467 318.818,199.255 305.736,209.755C303.688,206.334 303.393,206.495 299.5,205.613C299.294,205.297 299.916,204.816 299.71,204.5C299.71,204.5 297.537,203.316 297.349,203.214Z" style="fill:rgb(54,54,54);" transform="matrix(0.3607 -0.0518 0.0517 0.36 -31.244 39.069)"/>
  <path d="M207.422,190.292C193.04,196.112 191.453,201.076 186.67,194.386C184.538,191.404 190.599,185.581 194.452,184.372C206.717,180.524 206.771,180.133 207.424,178.467C209.512,173.137 217.903,186.366 211.61,188.779C211.278,188.906 211.3,188.891 207.422,190.292Z" style="fill:rgb(42,42,42);" transform="matrix(0.3607 -0.0518 0.0517 0.36 -31.244 39.069)"/>
  <path d="M489.573,476.866C480.068,478.914 474.103,482.984 472.359,474.529C471.25,469.148 471.246,467.458 476.493,467.284C484.401,467.022 485.645,462.812 497.361,468.752C499.797,469.987 498.113,474.645 495.454,475.37C493.502,475.902 491.524,476.334 489.573,476.866Z" style="fill:rgb(37,37,37);" transform="matrix(0.3607 -0.0518 0.0517 0.36 -31.244 39.069)"/>
  <path d="M359.585,257.132C352.048,255.998 348.336,254.931 348.694,248.525C349.011,242.862 368.908,249.582 373.227,251.972C382.763,257.248 375.923,265.107 371.735,262.13C368.229,259.638 368.435,259.076 359.585,257.132Z" style="fill:rgb(28,28,28);" transform="matrix(0.3607 -0.0518 0.0517 0.36 -31.244 39.069)"/>
  <path d="M477.526,792.818C480.553,792.816 484.219,792.437 493.234,796.991C503.4,802.126 495.99,806.697 492.543,805.383C477.515,799.654 475.701,803.069 472.434,804.219C471.291,804.621 466.955,802.99 467.135,798.495C467.317,793.958 476.584,792.923 477.526,792.818Z" style="fill:rgb(42,42,42);" transform="matrix(0.3607 -0.0518 0.0517 0.36 -31.244 39.069)"/>
  <path d="M332.358,126.929C329.894,126.629 329.855,126.358 327.498,127.495C322.399,129.955 318.515,122.507 324.799,117.937C330.742,113.615 349.352,125.14 348.522,129.504C347.209,136.412 339.392,136.418 337.872,132.392C336.427,128.566 336.003,128.808 332.358,126.929Z" style="fill:rgb(39,39,39);" transform="matrix(0.3607 -0.0518 0.0517 0.36 -31.244 39.069)"/>
  <path d="M596.367,187.04C596.723,186.889 607.6,180.027 613.018,187.878C617.151,193.869 609.789,193.538 600.37,198.245C599.556,198.652 590.808,203.023 589.638,194.479C588.793,188.31 590.239,187.729 596.367,187.04Z" style="fill:rgb(38,38,38);" transform="matrix(0.3607 -0.0518 0.0517 0.36 -31.244 39.069)"/>
  <path d="M581.649,176.626C577.643,182.403 574.896,184.633 571.932,178.291C568.197,170.299 581.957,158.45 586.401,160.708C597.221,166.206 588.786,168.849 584.102,174.165C583.918,174.373 583.92,174.347 581.649,176.626Z" style="fill:rgb(32,32,32);" transform="matrix(0.3607 -0.0518 0.0517 0.36 -31.244 39.069)"/>
  <path d="M238.366,168.269C237.683,168.68 228.595,176.437 225.027,167.69C222.018,160.316 229.537,163.857 238.831,153.772C241.336,151.054 246.689,154.946 246.973,157.453C247.663,163.562 239.451,167.539 238.366,168.269Z" style="fill:rgb(39,39,39);" transform="matrix(0.3607 -0.0518 0.0517 0.36 -31.244 39.069)"/>
  <path d="M297.381,232.695C290.823,227.516 294.392,221.957 299.267,223.959C300.23,224.354 307.721,227.431 312.279,224.169C316.33,221.27 316.56,223.538 320.231,226.79C321.979,228.339 320.56,232.951 317.601,233.825C308.148,236.617 298.903,233.25 297.381,232.695Z" style="fill:rgb(48,48,48);" transform="matrix(0.3607 -0.0518 0.0517 0.36 -31.244 39.069)"/>
  <path d="M184.638,245.77C177.966,248.754 170.452,251.803 168.886,241.456C168.047,235.908 176.103,239.459 181.47,234.467C186.655,229.644 200.248,238.096 184.638,245.77Z" style="fill:rgb(37,37,37);" transform="matrix(0.3607 -0.0518 0.0517 0.36 -31.244 39.069)"/>
  <path d="M223.526,367.173C220.052,367.3 214.767,369.152 214.142,364.549C213.165,357.338 214.366,354.957 221.452,356.692C229.415,358.641 229.578,356.111 233.572,357.234C240.955,359.31 238.863,362.972 238.544,363.529C234.853,369.99 224.24,367.24 223.526,367.173Z" style="fill:rgb(38,38,38);" transform="matrix(0.3607 -0.0518 0.0517 0.36 -31.244 39.069)"/>
  <path d="M163.456,985.543C167.172,988.55 167.139,988.477 171.54,990.418C176.303,992.518 180.02,998.916 171.44,997.849C162.68,996.76 163.206,995.021 154.571,993.092C150.27,992.13 148.069,984.097 156.426,982.227C159.939,981.441 162.745,984.898 163.456,985.543Z" style="fill:rgb(40,40,40);" transform="matrix(0.3607 -0.0518 0.0517 0.36 -31.244 39.069)"/>
  <path d="M170.381,387.654C161.826,382.146 155.915,386.936 154.431,383.537C150.572,374.695 170.938,373.365 180.045,385.8C180.547,386.485 181.902,396.506 170.381,387.654Z" style="fill:rgb(35,35,35);" transform="matrix(0.3607 -0.0518 0.0517 0.36 -31.244 39.069)"/>
  <path d="M139.644,208.426C138.105,206.259 138.072,206.191 135.461,205.893C131.018,205.387 130.906,198.702 132.124,197.216C137.52,190.632 152.712,209.799 151.229,214.424C150.91,215.418 146.765,223.262 139.644,208.426Z" style="fill:rgb(41,41,41);" transform="matrix(0.3607 -0.0518 0.0517 0.36 -31.244 39.069)"/>
  <path d="M482.578,833.127C488.823,835.255 498.838,837.839 496.579,843.536C494.195,849.546 484.415,841.752 480.528,841.98C474.975,842.305 473.26,842.95 472.62,837.486C471.872,831.092 481.724,832.965 482.578,833.127Z" style="fill:rgb(43,43,43);" transform="matrix(0.3607 -0.0518 0.0517 0.36 -31.244 39.069)"/>
  <path d="M674.905,618.391C673.561,611.885 672.839,612.189 672.336,610.556C670.396,604.27 676.118,603.073 680.095,605.928C681.289,606.785 683.057,608.055 685.43,623.507C685.892,626.515 683.211,628.971 681.473,628.623C678.1,627.948 675.213,619.313 674.905,618.391Z" style="fill:rgb(43,43,43);" transform="matrix(0.3607 -0.0518 0.0517 0.36 -31.244 39.069)"/>
  <path d="M689.623,607.348C678.772,598.354 677.886,590.997 681.474,590.373C686.708,589.462 690.884,596.738 691.372,597.588C692.35,599.292 704.68,604.771 698.295,610.23C696.349,611.893 690.229,607.757 689.623,607.348Z" style="fill:rgb(50,50,50);" transform="matrix(0.3607 -0.0518 0.0517 0.36 -31.244 39.069)"/>
  <path d="M612.54,234.376C607.166,232.92 602.114,233.014 601.732,225.499C601.71,225.058 601.46,220.137 605.511,221.463C624.961,227.826 623.728,231.14 622.631,233.574C620.146,239.083 614.359,235.194 612.54,234.376Z" style="fill:rgb(52,52,52);" transform="matrix(0.3607 -0.0518 0.0517 0.36 -31.244 39.069)"/>
  <path d="M641.402,597.788C642.326,598.15 652.19,602.015 648.07,608.247C645.075,612.778 643.927,608.895 634.611,607.045C626.317,605.397 623.678,597.479 633.534,596.917C637.612,596.685 637.491,596.998 641.402,597.788Z" style="fill:rgb(44,44,44);" transform="matrix(0.3607 -0.0518 0.0517 0.36 -31.244 39.069)"/>
  <path d="M416.404,523.574C416.62,523.88 419.977,526.227 418.046,531.331C416.995,534.107 407.053,540.809 408.01,529.494C408.23,526.891 399.6,528.06 401.573,522.529C401.662,522.281 404.714,517.945 406.436,517.339C410.361,515.956 415.819,522.837 416.404,523.574Z" style="fill:rgb(33,33,33);" transform="matrix(0.3607 -0.0518 0.0517 0.36 -31.244 39.069)"/>
  <path d="M403.372,383.068C402.226,383.298 391.445,385.463 389.896,377.427C388.703,371.242 394.15,376.048 400.684,371.763C406.351,368.046 420.243,381.092 403.372,383.068Z" style="fill:rgb(50,50,50);" transform="matrix(0.3607 -0.0518 0.0517 0.36 -31.244 39.069)"/>
  <path d="M342.039,88.549C342.118,68.676 359.046,92.523 356.076,100.313C352.304,110.207 345.509,94.175 345.176,93.897C342.656,91.797 342.693,91.737 342.039,88.549Z" style="fill:rgb(38,38,38);" transform="matrix(0.3607 -0.0518 0.0517 0.36 -31.244 39.069)"/>
  <path d="M181.273,648.227C184.633,645.416 185.104,646.761 189.478,646.088C193.33,645.496 193.827,644.723 196.355,647.618C199.384,651.087 191.577,652.012 194.852,655.221C197.044,657.369 194.589,658.374 193.905,658.925C186.892,664.57 175.239,654.38 181.273,648.227Z" style="fill:rgb(44,44,44);" transform="matrix(0.3607 -0.0518 0.0517 0.36 -31.244 39.069)"/>
  <path d="M235.531,504.475C232.93,501.469 232.892,501.621 229.823,499.1C229.794,499.077 228.706,498.327 227.975,496.34C221.607,479.008 253.986,506.109 246.47,510.46C241.022,513.613 237.34,507.058 235.531,504.475Z" style="fill:rgb(41,41,41);" transform="matrix(0.3607 -0.0518 0.0517 0.36 -31.244 39.069)"/>
  <path d="M536.551,775.078C546.674,777.719 539.48,782.278 536.162,790.368C532.327,799.72 522.867,790.421 528.011,782.133C531.394,776.681 530.667,774.652 536.551,775.078Z" style="fill:rgb(40,40,40);" transform="matrix(0.3607 -0.0518 0.0517 0.36 -31.244 39.069)"/>
  <path d="M110.271,97.818C125.415,109.471 112.996,114.869 112.427,114.703C108.807,113.65 110.379,104.004 101.502,103.48C94.792,103.085 100.356,89.209 110.271,97.818Z" style="fill:rgb(53,53,53);" transform="matrix(0.3607 -0.0518 0.0517 0.36 -31.244 39.069)"/>
  <path d="M91.212,957.683C99.977,969.375 88.556,970.294 85,966.061C84.316,965.248 77.8,951.651 79.666,948.589C83.66,942.037 90.701,956.624 91.212,957.683Z" style="fill:rgb(42,42,42);" transform="matrix(0.3607 -0.0518 0.0517 0.36 -31.244 39.069)"/>
  <path d="M692.244,548.419C685.795,564.315 678.739,557.252 678.179,552.558C677.442,546.384 678.713,546.475 683.394,542.372C683.88,541.946 685.93,537.406 690.101,541.91C692.622,544.632 693.128,544.751 692.244,548.419Z" style="fill:rgb(37,37,37);" transform="matrix(0.3607 -0.0518 0.0517 0.36 -31.244 39.069)"/>
  <path d="M261.409,566.553C257.084,559.419 257.235,558.922 257.18,558.559C256.114,551.504 261.514,551.462 265.307,557.613C270.611,566.215 275.566,567.912 271.336,573.377C266.104,580.137 261.998,567.866 261.409,566.553Z" style="fill:rgb(38,38,38);" transform="matrix(0.3607 -0.0518 0.0517 0.36 -31.244 39.069)"/>
  <path d="M176.525,340.121C172.112,340.609 165.579,343.61 163.463,338.516C160.319,330.944 170.516,331.572 174.462,331.139C180.699,330.454 186.152,335.141 185.259,337.429C183.3,342.45 181.845,341.004 176.525,340.121Z" style="fill:rgb(34,34,34);" transform="matrix(0.3607 -0.0518 0.0517 0.36 -31.244 39.069)"/>
  <path d="M125.554,778.568C120.298,781.919 120.809,782.444 120.266,783.377C119.959,783.905 118.778,785.535 113.862,779.233C110.421,774.821 115.744,774.236 123.605,769.7C131.682,765.039 138.257,769.86 131.214,776.12C130.845,776.448 130.439,775.426 125.554,778.568Z" style="fill:rgb(44,44,44);" transform="matrix(0.3607 -0.0518 0.0517 0.36 -31.244 39.069)"/>
  <path d="M91.646,994.806C90.79,995.182 82.273,998.923 80.171,992.628C78.18,986.667 85.852,987.44 86.5,987.505C88.291,987.686 99.932,975.985 101.065,993.493C101.409,998.799 96.996,991.854 94.653,992.87C94.39,992.984 94.45,993.027 91.646,994.806Z" style="fill:rgb(42,42,42);" transform="matrix(0.3607 -0.0518 0.0517 0.36 -31.244 39.069)"/>
  <path d="M548.413,851.533C548.305,851.059 547.295,846.631 548.445,845.457C549.476,844.406 550.003,844.392 565.337,852.758C569.945,855.271 568.751,863.529 561.64,860.162C553.191,856.162 551.539,857.959 548.413,851.533Z" style="fill:rgb(41,41,41);" transform="matrix(0.3607 -0.0518 0.0517 0.36 -31.244 39.069)"/>
  <path d="M268.272,195.67C273.272,203.008 270.164,203.573 269.523,203.586C261.454,203.748 263.001,200.03 254.619,195.271C250.604,192.991 246.272,182.777 257.474,187.562C258.637,188.059 261.992,189.251 268.272,195.67Z" style="fill:rgb(35,35,35);" transform="matrix(0.3607 -0.0518 0.0517 0.36 -31.244 39.069)"/>
  <path d="M60.491,799.22C45.584,801.936 50.936,792.44 51.755,791.958C57.812,788.393 67.977,789.863 70.242,795.602C72.881,802.289 69.082,801.19 68.656,801.036C64.692,799.601 64.729,799.747 60.491,799.22Z" style="fill:rgb(39,39,39);" transform="matrix(0.3607 -0.0518 0.0517 0.36 -31.244 39.069)"/>
  <path d="M424.463,409.534C419.637,404.191 419.391,404.521 418.286,403.998C410.377,400.252 417.594,392.581 423.366,395.729C433.967,401.51 434.879,420.337 424.463,409.534Z" style="fill:rgb(48,48,48);" transform="matrix(0.3607 -0.0518 0.0517 0.36 -31.244 39.069)"/>
  <path d="M239.915,461.41C239.486,458.313 238.121,457.825 240.307,456.193C244.838,452.811 251.084,466.446 252.759,468.256C259.432,475.468 251.078,478.224 247.837,475.144C243.615,471.131 240.366,462.595 239.915,461.41Z" style="fill:rgb(43,43,43);" transform="matrix(0.3607 -0.0518 0.0517 0.36 -31.244 39.069)"/>
  <path d="M641.635,559.225C636.789,557.548 632.396,558.426 631.76,554.447C629.773,542.002 654.148,551.783 650.132,559.323C647.962,563.395 644.327,560.621 641.635,559.225Z" style="fill:rgb(53,53,53);" transform="matrix(0.3607 -0.0518 0.0517 0.36 -31.244 39.069)"/>
  <path d="M121.518,801.889C120.704,801.841 112.001,801.333 113.561,795.521C113.86,794.408 119.043,790.717 122.315,791.967C126.777,793.671 136.797,791.933 133.172,798.318C131.263,801.68 122.493,801.868 121.518,801.889Z" style="fill:rgb(42,42,42);" transform="matrix(0.3607 -0.0518 0.0517 0.36 -31.244 39.069)"/>
  <path d="M57.583,762.136C54.997,761.108 50.836,759.85 48.172,749.573C46.45,742.93 52.839,741.501 56.225,748.628C59.421,755.353 69.54,762.906 57.583,762.136Z" style="fill:rgb(41,41,41);" transform="matrix(0.3607 -0.0518 0.0517 0.36 -31.244 39.069)"/>
  <path d="M557.477,814.356C558.051,814.297 561.741,813.917 564.306,816.677C570.472,823.31 553.162,831.26 550.383,821.536C548.131,813.655 552.531,814.978 557.477,814.356Z" style="fill:rgb(38,38,38);" transform="matrix(0.3607 -0.0518 0.0517 0.36 -31.244 39.069)"/>
  <path d="M419.573,139.793C405.215,142.014 410.086,128.872 412.528,128.694C424.859,127.796 428.482,136.62 419.573,139.793Z" style="fill:rgb(44,44,44);" transform="matrix(0.3607 -0.0518 0.0517 0.36 -31.244 39.069)"/>
  <path d="M636.701,567.19C639.999,570.093 639.787,570.169 643.096,572.931C648.916,577.788 643.434,586.464 638.609,581.39C634.884,577.472 634.619,577.858 630.265,574.726C631.489,573.13 631.71,573.4 632.938,571.835C633.86,570.662 633.333,569.471 633.337,569.456C633.422,569.142 633.511,568.812 636.701,567.19Z" style="fill:rgb(51,51,51);" transform="matrix(0.3607 -0.0518 0.0517 0.36 -31.244 39.069)"/>
  <path d="M87.153,728.554C88.499,736.087 91.971,739.438 85.497,739.646C81.18,739.784 81.514,738.691 78.891,735.199C73.601,728.161 85.365,722.099 86.706,726.401C86.924,727.1 86.935,727.854 87.153,728.554Z" style="fill:rgb(40,40,40);" transform="matrix(0.3607 -0.0518 0.0517 0.36 -31.244 39.069)"/>
  <path d="M369.075,306.509C369.12,305.993 369.601,300.49 371.5,300.504C380.884,300.568 378.411,313.685 377.268,315.368C376.725,316.167 371.33,321.034 369.075,306.509Z" style="fill:rgb(46,46,46);" transform="matrix(0.3607 -0.0518 0.0517 0.36 -31.244 39.069)"/>
  <path d="M265.521,224.282C281.716,227.142 271.409,238.114 266.573,235.341C261.875,232.647 258.812,225.014 265.521,224.282Z" style="fill:rgb(41,41,41);" transform="matrix(0.3607 -0.0518 0.0517 0.36 -31.244 39.069)"/>
  <path d="M297.349,203.214C297.537,203.316 299.71,204.5 299.71,204.5C299.916,204.816 299.294,205.297 299.5,205.613C299.139,205.79 294,208.305 296.5,209.647C296.898,209.86 300.163,208.62 302.19,209.5C303.524,210.079 303.433,210.099 304.713,210.717C301.615,213.972 298.075,218.334 294.276,210.618C292.202,206.407 296.804,203.552 297.349,203.214Z" style="fill:rgb(49,49,49);" transform="matrix(0.3607 -0.0518 0.0517 0.36 -31.244 39.069)"/>
  <path d="M636.701,567.19C633.511,568.812 633.422,569.142 633.337,569.456C633.333,569.471 633.86,570.662 632.938,571.835C631.71,573.4 631.489,573.13 630.265,574.726C629.217,573.272 622.651,558.887 636.701,567.19Z" style="fill:rgb(59,59,59);" transform="matrix(0.3607 -0.0518 0.0517 0.36 -31.244 39.069)"/>
  <path d="M552.672,696.608C549.188,702.836 549.141,702.712 547.753,705.641C547.362,704.653 546.601,705.489 546.209,704.5C545.81,703.493 546.818,703.557 546.5,702.479C546.47,702.377 545.803,702.553 544.563,701.487C541.959,699.25 547.465,700.003 547.326,696.498C547.321,696.36 547.263,694.9 547.546,694.786C550.48,693.608 550.578,694.351 552.672,696.608Z" style="fill:rgb(37,37,37);" transform="matrix(0.3607 -0.0518 0.0517 0.36 -31.244 39.069)"/>
  <path d="M273.647,94.779C266.56,98.326 265.941,99.312 265.555,99.57C264.111,98.259 264.457,97.725 262.433,97.532C260.522,97.35 267.457,92.219 267.47,92.217C271.04,91.711 271.099,92.205 273.647,94.779Z" style="fill:rgb(37,37,37);" transform="matrix(0.3607 -0.0518 0.0517 0.36 -31.244 39.069)"/>
  <path d="M107.678,733.299C111.631,738.284 106.39,744.486 104.581,738.472C104.089,736.836 101.003,731.131 106.47,732.597C106.578,732.626 106.47,732.597 107.678,733.299Z" style="fill:rgb(51,51,51);" transform="matrix(0.3607 -0.0518 0.0517 0.36 -31.244 39.069)"/>
  <path d="M305.736,209.755L304.713,210.717C303.433,210.099 303.524,210.079 302.19,209.5C300.163,208.62 296.898,209.86 296.5,209.647C294,208.305 299.139,205.79 299.5,205.613C303.393,206.495 303.688,206.334 305.736,209.755Z" style="fill:rgb(31,31,31);" transform="matrix(0.3607 -0.0518 0.0517 0.36 -31.244 39.069)"/>
  <path d="M423.019,471.362C422.866,471.262 422.653,471.283 422.5,471.183C419.691,469.353 423.789,470.521 426.453,468.47C431.02,464.953 429.909,471.735 429.5,471.902C426.789,473.005 426.442,474.359 424.514,472.253C423.922,471.606 423.829,471.845 423.019,471.362Z" style="fill:rgb(22,22,22);" transform="matrix(0.3607 -0.0518 0.0517 0.36 -31.244 39.069)"/>
  <path d="M130.453,147.252C130.484,147.515 132.329,147.529 130.324,150.423C129,152.087 128.606,151.693 127.608,153.525C124.728,151.044 124.331,151.75 124.128,151.5C123.24,150.403 124.728,151.242 125.967,150.5C126.349,150.271 126.253,149.646 126.5,149.276C127.264,148.131 128.177,148.298 128.297,148.238C129.374,147.704 129.339,147.761 130.453,147.252Z" style="fill:rgb(31,31,31);" transform="matrix(0.3607 -0.0518 0.0517 0.36 -31.244 39.069)"/>
  <path d="M311.709,701.439C312.647,705.014 312.429,704.955 312.806,707.443C312.497,708.02 313.39,708.516 311.5,709.88C311.432,709.929 310.958,710.272 310.5,710.179C307.541,709.584 309.294,708.334 310.139,704.5C310.658,702.143 311.657,702.784 311.954,702.379C312.146,702.118 311.517,701.7 311.709,701.439Z" style="fill:rgb(54,54,54);" transform="matrix(0.3607 -0.0518 0.0517 0.36 -31.244 39.069)"/>
  <path d="M130.324,150.423C132.618,151.42 132.629,151.371 132.802,151.5C134.173,152.526 132.539,152.73 132.509,152.741C130.589,153.463 131.646,155.005 129.636,155.28C127.699,155.545 127.498,155.943 127.17,155.214C126.932,154.683 127.846,154.056 127.608,153.525C128.606,151.693 129,152.087 130.324,150.423Z" style="fill:rgb(41,41,41);" transform="matrix(0.3607 -0.0518 0.0517 0.36 -31.244 39.069)"/>
  <path d="M109.1,77.844C109.335,77.703 109.218,76.066 111.536,76.381C112.392,76.497 116.944,75.537 116.784,77.36C116.735,77.919 116.214,78.368 116.165,78.928C111.062,79.622 109.196,77.908 109.1,77.844Z" style="fill:rgb(146,146,146);" transform="matrix(0.3607 -0.0518 0.0517 0.36 -31.244 39.069)"/>
  <path d="M206.554,723.5C208.871,724.662 208.404,725.121 210.285,726.816C211.623,728.022 211.311,728.921 209.583,728.835C207.079,728.71 207.293,729.321 206.439,729.503C206.583,723.971 206.529,723.98 206.554,723.5Z" style="fill:rgb(78,78,78);" transform="matrix(0.3607 -0.0518 0.0517 0.36 -31.244 39.069)"/>
  <path d="M332.531,714.22C332.688,714.612 334.034,717.962 332.431,719.5C331.758,720.145 329.361,717.139 329.151,716.877C328.116,715.578 328.83,715.024 332.531,714.22Z" style="fill:rgb(32,32,32);" transform="matrix(0.3607 -0.0518 0.0517 0.36 -31.244 39.069)"/>
  <path d="M188.657,310.242C187.884,310.995 187.111,311.747 186.337,312.5C186.047,312.167 181.749,307.235 185.5,307.044C186.89,306.973 187.892,309.451 188.657,310.242Z" style="fill:rgb(15,15,15);" transform="matrix(0.3607 -0.0518 0.0517 0.36 -31.244 39.069)"/>
  <path d="M188.657,310.242C191.063,312.093 191.367,313.348 188.5,314.447C186.831,315.086 187.155,314.051 186.337,312.5C187.111,311.747 187.884,310.995 188.657,310.242Z" style="fill:rgb(17,17,17);" transform="matrix(0.3607 -0.0518 0.0517 0.36 -31.244 39.069)"/>
  <path d="M140.97,148.453C141.269,142.007 144.064,144.1 144.12,144.5C144.53,147.426 141.358,148.341 140.97,148.453Z" style="fill:rgb(42,42,42);" transform="matrix(0.3607 -0.0518 0.0517 0.36 -31.244 39.069)"/>
  <path d="M435.481,536.47C435.489,536.474 436.46,535.928 436.922,537.036C438.054,539.75 436.469,539.787 435.598,540.673C435.043,540.326 435.01,541.025 434.415,540.653C434.308,540.586 433.337,539.98 433.5,539.362C433.646,538.809 434.658,538.971 434.983,538.5C434.983,538.5 435.442,536.633 435.481,536.47Z" style="fill:rgb(25,25,25);" transform="matrix(0.3607 -0.0518 0.0517 0.36 -31.244 39.069)"/>
  <path d="M128.283,385.293C128.571,385.467 133.416,388.391 130.598,388.81C129.035,389.042 129.294,388.398 127.308,386.332L128.283,385.293Z" style="fill:rgb(60,60,60);" transform="matrix(0.3607 -0.0518 0.0517 0.36 -31.244 39.069)"/>
  <path d="M409.46,522.623C408.768,528.149 406.442,524.858 406.408,524.57C406.143,522.329 407.159,522.812 409.46,522.623Z" style="fill:rgb(13,13,13);" transform="matrix(0.3607 -0.0518 0.0517 0.36 -31.244 39.069)"/>
  <path d="M303.483,730.398C307.351,732.58 304.729,733.407 304.477,733.461C303.695,733.629 302.355,732.83 302.19,732.732C300.582,731.773 301.976,731.55 303.483,730.398Z" style="fill:rgb(31,31,31);" transform="matrix(0.3607 -0.0518 0.0517 0.36 -31.244 39.069)"/>
  <path d="M478.032,473.006C477.698,472.869 473.521,471.299 476.383,470.55C478.623,469.964 479.206,470.945 478.032,473.006Z" style="fill:rgb(44,44,44);" transform="matrix(0.3607 -0.0518 0.0517 0.36 -31.244 39.069)"/>
  <path d="M433.41,555.354C428.261,555.377 432.983,552.776 433.157,552.831C434.645,553.3 433.733,553.817 433.41,555.354Z" style="fill:rgb(31,31,31);" transform="matrix(0.3607 -0.0518 0.0517 0.36 -31.244 39.069)"/>
  <path d="M284.552,287.192C284.2,282.67 286.574,285.3 286.657,285.5C286.751,285.728 286.336,286.427 286.292,286.5C285.395,288.012 284.873,287.064 284.552,287.192Z" style="fill:rgb(48,48,48);" transform="matrix(0.3607 -0.0518 0.0517 0.36 -31.244 39.069)"/>
  <path d="M454.682,475.274C454.387,475.093 453.938,475.47 453.643,475.289C453.107,474.96 453.481,472.651 455.5,473.953C456.391,474.528 455.22,474.405 454.682,475.274Z" style="fill:rgb(59,59,59);" transform="matrix(0.3607 -0.0518 0.0517 0.36 -31.244 39.069)"/>
  <path d="M437.195,534.723C436.965,534.507 436.485,534.82 436.255,534.603C434.887,533.317 438.16,531.987 437.954,533.5C437.889,533.975 437.26,534.248 437.195,534.723Z" style="fill:rgb(30,30,30);" transform="matrix(0.3607 -0.0518 0.0517 0.36 -31.244 39.069)"/>
  <path d="M541.393,913.5C541.305,913.332 539.983,910.8 541.5,911.13C542.531,911.355 542.505,911.939 542.5,912.048C542.454,913.075 541.44,912.471 541.393,913.5Z" style="fill:rgb(37,37,37);" transform="matrix(0.3607 -0.0518 0.0517 0.36 -31.244 39.069)"/>
  <path d="M615.514,230.517C615.674,230.2 615.207,229.779 615.367,229.461C616.329,227.555 617.888,227.527 617.747,229.713C617.74,229.82 617.798,228.913 616.446,229.4C615.7,229.668 616.269,230.245 615.514,230.517Z" style="fill:rgb(56,56,56);" transform="matrix(0.3607 -0.0518 0.0517 0.36 -31.244 39.069)"/>
</svg>